<svg width="972" height="252" viewBox="0 0 972 252" fill="none" xmlns="http://www.w3.org/2000/svg">
<g clip-path="url(#clip0_10917_31171)">
<path d="M163.764 76.4153L131.011 43.6621L0.00507885 174.668L32.7583 207.421L163.764 76.4153Z" fill="black"/>
<path d="M114.632 27.2875L87.3379 -0.00683594L43.667 43.6641L70.9613 70.9584L114.632 27.2875Z" fill="black"/>
<path d="M120.294 207.644L93 180.35L49.3291 224.021L76.6234 251.315L120.294 207.644Z" fill="black"/>
<path d="M971.48 89.3399L949.56 67.4199L890.42 126.56L831.28 67.4199L809.36 89.3399L868.5 148.48L809.36 207.62L831.28 229.54L890.42 170.4L949.56 229.54L971.48 207.62L912.34 148.48L971.48 89.3399Z" fill="black"/>
<path d="M724.689 161.541H616.399C614.709 177.431 626.419 194.131 642.629 199.551C663.829 206.641 683.189 199.561 694.649 180.261C703.129 184.321 711.649 188.391 720.469 192.611C708.629 212.661 691.969 225.371 669.339 229.031C644.469 233.051 622.589 226.281 605.109 207.831C590.179 192.071 584.349 172.681 584.799 151.271C585.149 134.611 589.319 118.981 599.469 105.551C616.629 82.8607 639.979 73.6707 667.659 78.1507C696.049 82.7407 713.569 100.741 721.899 127.881C725.189 138.591 725.519 149.631 724.679 161.551L724.689 161.541ZM692.039 133.771C691.019 118.321 675.829 106.021 658.119 105.261C636.249 104.321 620.709 118.301 618.199 133.771H692.039Z" fill="black"/>
<path d="M314.46 80.6504H264.46H236.96H233.46V224.65H264.46V107.65H314.46V80.6504Z" fill="black"/>
<path d="M800.64 161.65V134.65H755.46V161.65H800.64Z" fill="black"/>
<path d="M575.46 80.6504H531.46V35.6504H500.46V80.6504V107.65V224.65H531.46V107.65H575.46V80.6504Z" fill="black"/>
<path d="M445.46 80.1506V98.9906C432.53 85.1806 414.68 76.6406 394.96 76.6406C355.47 76.6406 323.46 110.891 323.46 153.141C323.46 195.391 355.47 229.641 394.96 229.641C414.68 229.641 432.53 221.101 445.46 207.291V224.641H472.46V80.1506H445.46ZM398.96 200.051C374.66 200.051 354.96 179.051 354.96 153.151C354.96 127.251 374.66 106.251 398.96 106.251C423.26 106.251 442.96 127.251 442.96 153.151C442.96 179.051 423.26 200.051 398.96 200.051Z" fill="black"/>
</g>
<defs>
<clipPath id="clip0_10917_31171">
<rect width="971.48" height="251.31" fill="white"/>
</clipPath>
</defs>
</svg>
