<svg width="972" height="252" viewBox="0 0 972 252" fill="none" xmlns="http://www.w3.org/2000/svg">
<g clip-path="url(#clip0_10917_31119)">
<path d="M163.764 77.0354L131.011 44.2822L0.00507885 175.288L32.7583 208.041L163.764 77.0354Z" fill="#91F200"/>
<path d="M114.632 27.9076L87.3379 0.613281L43.667 44.2842L70.9613 71.5785L114.632 27.9076Z" fill="#91F200"/>
<path d="M120.294 208.263L93 180.969L49.3291 224.64L76.6234 251.934L120.294 208.263Z" fill="#91F200"/>
<path d="M971.48 89.961L949.56 68.041L890.42 127.181L831.28 68.041L809.36 89.961L868.5 149.101L809.36 208.241L831.28 230.161L890.42 171.021L949.56 230.161L971.48 208.241L912.34 149.101L971.48 89.961Z" fill="#91F200"/>
<path d="M724.689 162.161H616.399C614.709 178.051 626.419 194.751 642.629 200.171C663.829 207.261 683.189 200.181 694.649 180.881C703.129 184.941 711.649 189.011 720.469 193.231C708.629 213.281 691.969 225.991 669.339 229.651C644.469 233.671 622.589 226.901 605.109 208.451C590.179 192.691 584.349 173.301 584.799 151.891C585.149 135.231 589.319 119.601 599.469 106.171C616.629 83.4809 639.979 74.2909 667.659 78.7709C696.049 83.3609 713.569 101.361 721.899 128.501C725.189 139.211 725.519 150.251 724.679 162.171L724.689 162.161ZM692.039 134.391C691.019 118.941 675.829 106.641 658.119 105.881C636.249 104.941 620.709 118.921 618.199 134.391H692.039Z" fill="#91F200"/>
<path d="M314.46 81.2705H264.46H236.96H233.46V225.271H264.46V108.271H314.46V81.2705Z" fill="#91F200"/>
<path d="M800.64 162.271V135.271H755.46V162.271H800.64Z" fill="#91F200"/>
<path d="M575.46 81.2705H531.46V36.2705H500.46V81.2705V108.271V225.271H531.46V108.271H575.46V81.2705Z" fill="#91F200"/>
<path d="M445.46 80.7707V99.6107C432.53 85.8007 414.68 77.2607 394.96 77.2607C355.47 77.2607 323.46 111.511 323.46 153.761C323.46 196.011 355.47 230.261 394.96 230.261C414.68 230.261 432.53 221.721 445.46 207.911V225.261H472.46V80.7707H445.46ZM398.96 200.671C374.66 200.671 354.96 179.671 354.96 153.771C354.96 127.871 374.66 106.871 398.96 106.871C423.26 106.871 442.96 127.871 442.96 153.771C442.96 179.671 423.26 200.671 398.96 200.671Z" fill="#91F200"/>
</g>
<defs>
<clipPath id="clip0_10917_31119">
<rect width="971.48" height="251.31" fill="white" transform="translate(0 0.620117)"/>
</clipPath>
</defs>
</svg>
