<svg width="972" height="253" viewBox="0 0 972 253" fill="none" xmlns="http://www.w3.org/2000/svg">
<g clip-path="url(#clip0_10917_31133)">
<path d="M163.764 77.345L131.011 44.5918L0.00507885 175.597L32.7583 208.351L163.764 77.345Z" fill="white"/>
<path d="M114.632 28.2172L87.3379 0.922852L43.667 44.5938L70.9613 71.8881L114.632 28.2172Z" fill="white"/>
<path d="M120.294 208.574L93 181.279L49.3291 224.95L76.6234 252.245L120.294 208.574Z" fill="white"/>
<path d="M971.48 90.2696L949.56 68.3496L890.42 127.49L831.28 68.3496L809.36 90.2696L868.5 149.41L809.36 208.55L831.28 230.47L890.42 171.33L949.56 230.47L971.48 208.55L912.34 149.41L971.48 90.2696Z" fill="white"/>
<path d="M724.689 162.47H616.399C614.709 178.36 626.419 195.06 642.629 200.48C663.829 207.57 683.189 200.49 694.649 181.19C703.129 185.25 711.649 189.32 720.469 193.54C708.629 213.59 691.969 226.3 669.339 229.96C644.469 233.98 622.589 227.21 605.109 208.76C590.179 193 584.349 173.61 584.799 152.2C585.149 135.54 589.319 119.91 599.469 106.48C616.629 83.7904 639.979 74.6004 667.659 79.0804C696.049 83.6704 713.569 101.67 721.899 128.81C725.189 139.52 725.519 150.56 724.679 162.48L724.689 162.47ZM692.039 134.7C691.019 119.25 675.829 106.95 658.119 106.19C636.249 105.25 620.709 119.23 618.199 134.7H692.039Z" fill="white"/>
<path d="M314.46 81.5801H264.46H236.96H233.46V225.58H264.46V108.58H314.46V81.5801Z" fill="white"/>
<path d="M800.64 162.58V135.58H755.46V162.58H800.64Z" fill="white"/>
<path d="M575.46 81.5801H531.46V36.5801H500.46V81.5801V108.58V225.58H531.46V108.58H575.46V81.5801Z" fill="white"/>
<path d="M445.46 81.0803V99.9203C432.53 86.1103 414.68 77.5703 394.96 77.5703C355.47 77.5703 323.46 111.82 323.46 154.07C323.46 196.32 355.47 230.57 394.96 230.57C414.68 230.57 432.53 222.03 445.46 208.22V225.57H472.46V81.0803H445.46ZM398.96 200.98C374.66 200.98 354.96 179.98 354.96 154.08C354.96 128.18 374.66 107.18 398.96 107.18C423.26 107.18 442.96 128.18 442.96 154.08C442.96 179.98 423.26 200.98 398.96 200.98Z" fill="white"/>
</g>
<defs>
<clipPath id="clip0_10917_31133">
<rect width="971.48" height="251.31" fill="white" transform="translate(0 0.929688)"/>
</clipPath>
</defs>
</svg>
